<svg xmlns="http://www.w3.org/2000/svg" viewBox="0 0 423.97 190.65" data-inject-url="https://cdn.shopify.com/s/files/1/0014/1962/t/53/assets/logo-monster-hunter.svg?v=3854042611411881623" class="injectable"><path d="M125.74 45.05c7.43-2.5 5.77 23.84 4.47 27.68-3.52 10.38-7.5-2-8-6.9A45.45 45.45 0 0 1 123 51.3c.3-1.4 2.83-5.5 2.75-6.26zm186.5-15.3a19.75 19.75 0 0 0 3.05-4.75c1.2.18.37 19.24.13 20.86-1.05-1.1-1.48-3.28-2.62-4.22-2.16-1.77-4.94-1-7.62-1s-6.14.45-8.38-.2c-.76 8.07-.05 15.15-.1 23.15 0 2.82-2.44 26.7 3.8 25.53-3.7-.14-7.5-.05-11.2 0-.9 0-8.23-.47-8.45-.25 5.24-3.84 3.86-8.74 4.28-14.7.52-7.35-.32-14.74-.32-22.26 0-2.5 1.1-7.76 0-10-.93-1.92-1.06-1.32-4.15-1.32-3.28 0-9.1-1.2-11.7.65-1.3.92-2.1 3.44-3 4.8-.52-3.8.4-7.7-.4-11.47-1.26-.2-6.88 14.6-8.07 17.3-2-3.24-1.67-5.74-5.3-8a24.19 24.19 0 0 0-7.18-3.23c-4-1-8.8-1.2-12.68.37-4.55 1.82-7.7 7.48-1.58 10.07 1.6.68 3.7.7 5.43.92 4.46.6 9.14.8 13.6 1.88a16.31 16.31 0 0 1 7.1 3.83c1.34 1.07 3.1 1.56 4.28 2.66 2.77 2.6 3.52 8.28 3.28 11.72a13.17 13.17 0 0 1-.93 4.2c0 .1-2.55 3.8-2.55 4.06 0 .75.72.35 1 .46-3.9 9.4-19.9 10.48-28.38 9.1a41.54 41.54 0 0 1-7.77-2.1c-2.45-.9-5.74-3.67-8.16-3.82-.8 0-3.35.85-3.7 1.73-.63 1.6 1.36 2.47 2.78 3.57-5.84.16-13.6 1.26-19.26 0-.17-.14 2.1-3 2.1-3.3 0-1.14-1.13-2.38-1.83-3.3-2.47-3.27-4.83-7.37-7.32-10.36-.65-.77-2.3-1.75-3.14-2.73l-4.65-5.33c-1.65-1.8-8.34-13.17-10.76-12.73.65.2-.14 19.88-.14 21.5 0 3.34-2.16 15.37 3.84 16.12-6.1.55-12.6-.78-18.6.14a34.59 34.59 0 0 0 3.71-4.3c.93-2.48-.1-6.17.07-8.74.3-4.7.1-6.7.1-11.38v-20.8c-.08-2.46.85-7.3-.15-9.63-.84-2-3.62-2.4-4.9-4.14 8.1.3 16.18-.15 24.27 0-.17.84-3.37 2-3.76 2.52-1.92 2.32-.86 3 1.12 5.38 3.06 3.73 6.13 7.47 9 11.5a46.35 46.35 0 0 0 6 7c1.4 1.36 7 10.6 8.85 10.55.6 0 .27-18.78.27-20.3 0-3.56.66-7.84 0-11.35-.55-3-1.94-2.55-3.83-5.23h19.22c-2.1 2.12-3.72 2.17-4.47 5.25-.4 1.67.1 4 .1 5.8l-.1 12.73c-.07 10.3-.52 20.72.37 31.1 1.92-.73 4.3-10.14 4.9-11.68.94-2.44 2.33-4.94 2.92-7.47.53.27.93 3.83 1.2 4.5a8.53 8.53 0 0 0 3.63 4.62c5.1 3.43 12.86 5.33 18.87 4 8.14-1.88 11.72-11 1.9-12.9-4.48-.85-9.06-1.07-13.6-1.74-11.24-1.66-19.9-10.52-16-22.5A16.27 16.27 0 0 1 221 35c1.42-1.2 2.83-1.24 4.1-2 .86-.52 1-1.4 2-1.9a20.82 20.82 0 0 1 5.9-1.64c2.82-.4 4.43.67 7 .93s5.2-.64 7.8-.27c4.27.62 8.43 4.67 12.55 4.9 1.5.08 4.52-.48 5.54-2.24.4-.7-.62-8.36.27-8.43.76 7.58 11.53 6.7 16.73 6.7 4.27 0 8.6-.8 13-.77s12.7 2 16.36-.53zm84.96 41.68c-.3-1-2.5-5.57-3.45-6.06s-5.93 0-7.14 0c-4.63.05-3.6-.8-4.8 2.65-.94 2.7-1.23 14.3.07 17.17.4.86 3.9 3.28 3.8 3.94-3.75 1.3-10.38-.06-14.38 0-6.42.13-3.6-.44-5 5a43.36 43.36 0 0 0-4.21-4.9c-2.58-1.13-6.6.16-9.43-.27-2-.3-3.23-.9-5.06-.77-3.17.2-6.9.83-10.43.9-7.3.17-14.62-.1-21.9 0 2.82-2.56 3.76-2.68 4.15-6.46.45-4.33.1-8.85.08-13.2 0-6.24-.16-12.25.73-18.38a15.67 15.67 0 0 0 .31-3.32c-.08-1-.77-1.57-.82-1.93-.43-3.13.46-7.27-.3-10.5-.53-2.25-1.7-3-3.1-4.92 11.7-.44 23.4.5 34.92.8 4.74.12 13.75-.14 14.16-6.87.64 2.6-.88 4.76 1.4 5.84 1.95.9 6.36.1 8.5.1h12.8a53.37 53.37 0 0 1 7.79.53c6.7 1 13.3-2 19.25 3.85 4.8 4.74 5.46 13.6 3.73 19.6A9.92 9.92 0 0 1 416 59.1c-.77.8-2.56 3-3.14 3.4-1.34.9-5.25 1.53-6.07 2.4-.22 3.53 5.7 10 7.66 13A46.58 46.58 0 0 0 424 89.15c-.6-.88-20-.92-21.5.12a31.75 31.75 0 0 0 2.63-3.09c.4-2.35-3.13-6.5-4.23-8.3-1.3-2.1-2.52-4.3-3.7-6.44zm-31.4-40.9c-.7 4.7.08 10.9-.4 15.83-.57-1.3-2-4.74-3.3-5.53-2.75-1.64-10.76-.32-13.93-.3l-12.88.07c-3.42 0-2.9-.5-3.9 2-.55 1.4-.08 5.12 0 6.62 0 2.2-.42 3.4 1.32 4.27 1.4.7 4.38.1 6 .12 2.78 0 9.76 1.22 12.17-.15 1.82-1 2.55-3.84 4-5.42.94 3 .14 7.4.14 10.5 0 1.57 1.2 9.83-.14 11.13-1.52-3.74-2.68-5.74-6.47-6.07-4.2-.36-8.62 0-12.84 0-.6 0-3.25-.4-3.74 0-1.1.92-.56 6.37-.53 8 .05 2.72-.64 6.14 1.58 7.12s7 0 9.3 0l13.36-.06c1.73 0 5.68.77 7.26 0 1.85-1 2.35-4.28 3.73-5.7v8.14c0 2.1-1.12 7.16 1.34 6.42 5.37-1.64 1.75-16 1.83-19.6.06-2.9.77-5.86.93-8.76.2-3.73-.54-7.57-.54-11.44-.01-5.28 2.37-15.5-4.3-17.17zm31.8 10.16c-2.38-.14-14.4-1.52-15.77-.06s-.07 12.46.07 14.44c6.9-.77 23 4.25 25.6-4.9 1.92-6.7-3.66-10.18-9.9-9.5zm-243 8.18c.74 3.33 3.37 6.38 4.08 9.92a26.17 26.17 0 0 1 .25 8.6 22.45 22.45 0 0 1-4.19 10.38c-8.44 11.55-22.45 13.76-35.1 8.8-12.98-5.1-24.2-14.93-23.74-30.56.43-14.6 14.35-24.06 28.22-24 12.3 0 23.05 7.06 30.5 16.87zM119.13 40c-7.9.56-13.65 7.82-12.26 15.25 1.7 9.06 7.48 16.4 15 21.78 7.23 5.17 16 5.6 22.94-.42 6.44-5.6 4.14-13.08.32-19.7-5.05-8.76-14.83-18.57-26-16.9z"></path><path d="M347.2 94.12c.68-.82 1.07-1.92 1.72-2.78 0 7.2.65 5.94 7.6 5.94l9.67.4c7.32.6 14.7-1.28 22.17 0 8.53 1.46 12.9 8.4 13.1 16.66.1 3.86-.4 8-2.78 11.3-1.06 1.45-2.1 1.67-3.3 2.5-.44.3-1.44 1.7-2 2-1.2.66-3.7.87-4.76 1.7-.24 2.15 2.18 4.84 3.05 6 1 1.44 2.63 3.15 3.3 4.88.36.9.1 2.25.6 3 .28.4 1.66 1.3 2.32 2 1.05 1.18 1.56 2.8 2.6 4s4.5 3 5 4.42h-11c-1.86 0-8.62-1.17-10.2 0 1.83-2.93 2.68-2 2.24-4.68-.3-1.85-2.3-4.1-3.28-5.75-1.94-3.25-3.82-6.6-5.7-9.9-1.54-2.73-1.1-2.48-3.7-3.33-2-.66-9.37-.6-10.3.58-1.48 1.9 0 11.2 0 13.6 0 1.88-.36 4.2.46 5.94.74 1.58 2.6 2 3.38 3.54-2.9 0-15.73-1.78-17.55.27-.2.22-.2 5.1-.55 4.76-1.18-1.15-1.4-3.48-2.75-4.45-2.17-1.54-8.14-.54-10.75-.53h-15.9c-7.12-.15-14.26 0-21.4 0 3-3.93 4.2-3.1 4.2-8v-40.1c0-1.74.43-4.17 0-5.88-.14-.55-2.24-4.52-2.77-3.13v14.37c-.92-.08-2.2-4-2.78-4.55-1.53-1.36-.26-.7-2.52-1.3-2.55-.7-6.06-.08-8.7-.07h-2.52q-3.76-1.27-2.55 2.58c-1.45 4.15-.1 11.52-.08 16 0 6.46-.34 12.86 0 19.17.15 2.77-.52 5.86.93 8.2.6.95 2.84 1.68 3 2.76h-11c-.95 0-8.44-.5-8.57-.38 6.2-4 4-12.44 4-19l.13-22.53c0-1.12.68-5.75-.26-6.74-.47-.5-4.93 0-5.57 0-2.23 0-4.64-.45-6.83-.24-5.1.5-3.13 2.9-6.46 5.66-.4-4.7.14-9.42-.26-14.12-4.34-.53-2.38 25.65-2.38 28.1v19.75c0 1.54-.5 4.07 0 5.52.6 1.73 2.54 2.33 3.7 4h-19.4c4.12-4.12.82-6.4-2.1-10l-5.36-6.64-6.9-8.52c-1.67-2.05-8.5-12.76-10.84-12.67-.2 7.8-.15 15.63-.13 23.44 0 2.74-1 8 0 10.46.32.77 3.56 4.05 4 4-1.78 0-19-.2-19-.27 6.9-2.86 4.1-15.75 4.1-22v-9.74a60.63 60.63 0 0 1 0-8.31c.26-1.8 1.6-4.8 1.54-6.52-.22-.22-1.52 0-1.58-.25a18 18 0 0 1 0-3.36c0-1.83.4-4.1-.8-5.6-2.5-3.13-4.74-1-5.53 1.94-1.2 4.36 0 10.7 0 15.2 0 8.28 1.16 17.64-.66 25.73-1.07 4.76-2.93 6.6-6.66 9.34-1.33 1-1.4 2.1-3.37 2.7s-3.8.36-5.74.92c-7.42 2.14-16.82 2.06-24-1.47-6.23-3.08-8.42-8.73-9.06-15.32-.95-10-.27-20.3-.27-30.34 0-2.9 1-7.72-1.78-9.6-4.83-3.2-5.86 4.76-5.86 8.16 0 2.47.44 5.42 0 7.84-.3 1.63-1.2 1-1.26 2.9 0 1 1.08 2.48 1.26 3.58.48 2.9 0 6.3 0 9.23 0 8.46.22 17-1.2 25.1-.6 3.37 1 8.88 1.1 12.82 0 1.18-.76 2.65-.72 4.07 0 2 .82 4.43.82 6.8 0 3.07-.55 5.5 1.7 7.33 1.55 1.27 6.63 1.1 7.4 2.92-5.16-.48-11.16.26-16.45.26-1.7 0-14.4-1.22-15.07-.53 1.85.28 6.3-3.36 7-4.76 1.6-3.26.15-11.56.15-15.17v-15.36c0-5.64.45-4.67-4.33-5.36a25.66 25.66 0 0 0-3.15-.67c-4 0-8.77.8-13.18.8H80.63c-.6 0-4.2-.47-4.75 0-1.28 1.14-.4 9.45-.4 11.25q-.06 7.63 0 15.25c0 2.83-1 8 .8 10.5.87 1.24 7.1 2.45 7.25 3.75-4.7-.5-10.3.26-15.13.26-1.53 0-13 1.26-13.77-.4 7.58-3.7 5.73-10.34 5.8-18.1v-38l.3-24.12c0-2.36.3-6.4-1.2-8.58-1.2-1.77-4.68-2.72-6.32-4 2.85.08 30.1-.52 30.2.13-1.3-.16-5.43 2.26-6.33 3.3-1.74 2-1.47 2.74-1.52 5.94q-.12 7.3-.1 14.57c0 2.3-1.2 12.24.28 13.37 1 .75 3.35-.17 4.48.13 1.47.4 2.42 1.72 4 1.9 2.3.27 3.46-2.73 5-2.83.4 0 1.5 1.44 2 1.44 1.78 0 3.23-.52 5.18-.45 4.62.16 8.7-.05 13.8-.06 2.57 0 5.1.55 6.23-1.22.73-1.13.07-4.15.08-5.6l.15-11.6c-.06-5.38 2-17.55-5.86-18.8 3.78-.08 44.6-.08 44.6.13-7.38 4-4.15 17.28-4.12 24.42 0 5.26-.68 11.24.56 16.36 1.85 7.67 10.3 8.63 15.87 8.3 12.18-.7 10.45-14.2 10.4-23.07 0-5.4.53-10.55.13-15.6-.16-2 .56-5.23-.26-7.12-.28-.65-3.6-3.35-3.3-3.45 4.73-1.8 14.23 0 19.13 0h18.47c-2 3.7-3.22 2.35-1.2 6.36a34.53 34.53 0 0 0 1.85 3.57c.9 1 1.48.8 2.45 1.7 4.25 3.9 7.77 9.48 11.4 14 3 3.75 6.32 7.56 9.1 11.47 2.1.6.53-16.55.53-16.06 0-4.37 1.48-12.53-.13-16.7-.72-1.86-2.67-2.6-3.7-4.33h12.34c2 0 4.26.84 5.25-.94.1-.16-.56-5 .08-4.87 3.37 7.16 6.9 5.84 14.37 5.8 3.92 0 7-.24 10.92 0 5 .36 10.12-.1 15.33-.15 3.9 0 4.46.44 6.73-2 .37-.4 1.78-3.62 2.26-3.28 1.23 3.5-1.5 4.7 3.3 5.27a55.69 55.69 0 0 0 6.46 0c6.13 0 12.34-.3 18.46 0 6.62.33 15.14 3.2 19.12-3zm.67 48.93c.82-.7 1.06-2 1.85-2.77 0 2.6-1.2 10.36.06 12.56 1.13 2 1.58-.15 2-2.2 1.32-6.5 0-13.85-.08-20.13-.07-5.68.18-11.38.16-17.06 0-1.4.62-16.1-2.6-14.65-1.46.66.6 14.57-.6 14.57-1.18-8.85-14.55-5.8-20.56-5.8-2.32 0-12.1-1.2-13.47.5-.77 1-.16 7.23-.14 8.73.07 4-.33 3.28 2.73 3.84 2.8.52 6.16 0 9 0 1.77 0 4.37.43 6.13.08 3.74-.73 3.42-3.26 5.75-5.76.13 6.86.4 15-.13 21.63-2.15-4.3-2-5.4-6.17-5.88s-10.5-1-14.62 0c-3.34.78-2.52.9-2.58 4.3a53.85 53.85 0 0 0 0 7.83c.6 4.38 1.22 3 6.18 3 3.56 0 27.7 2.32 27.07-2.82zm36.4-35.22c-5.53-.52-12.84-1.32-18.3-.24-3.15.63-1.58-.54-2.4 1.7-.45 1.2 0 3.4 0 4.7 0 1.82-.92 5.88.1 7.3 1.16 1.58 5.62.77 7.85.77 4.82 0 8.76 1.46 13.75-.4 6.08-2.28 5.87-12.74-1-13.83zM32.5 1.25c-3.84 3.46-2.5 6-.76 9.9l3 6.75c1 2.43.78 4.7 1.53 7.1.9 2.86 4 5.44 5.58 8.8 1.66 3.6 3.16 7.33 4.83 10.93.72 1.6 1.32 3.1 2 4.7 1 2.24 1.3 4.82 2.92 3.8 1.37-.84 3.9-8.5 4.48-9.76l9.5-20.72c2.1-4.57 4.27-8.8 6-13.32.5-1.3 1.6-2.88 1.5-4.34C73 4.24 69.53.24 69.6.1h30.17c-1.9 2.3-3.87 2.6-4.9 5.9a27.61 27.61 0 0 0-1.06 4.74c-.16 2.66.74 5 .93 7.7.65 9.18 0 18.65 0 27.85V76.5c0 1.68-.46 4.08 0 5.7 1.18 4.16 5.72 4.2 8.3 6.66-1.12-1.07-13.1.2-15.35.2-4.7 0-12.4 1.7-16.8-.1 4.73-.63 7.67-5.26 7.93-9.35.5-7.6 0-15.4 0-23 0-1.72-.7-5 0-6.62.47-1.07 1.9-.52 2.37-1.76.6-1.6-1.5-3.25-1.83-4.38a19 19 0 0 1-.54-4.94c0-1.18.94-9.8-.65-9.7-3 4.33-5 10.92-7.4 15.83-1.33 2.76-2.45 5.8-4 8.44-.6 1.1-6.75 8.05-6.03 8.48a6.38 6.38 0 0 1 2.1-.54c.36 2.18-4.54 9.7-5.17 11.1-1.1 2.4-2.3 4.74-3.43 7.12-.3.64-3.55 9.5-4.75 9.66L35.18 56.9l-4.74-11.12-5.82-13.2c-.34-.78-1.3-4.5-2.05-5.07-.25-.2-.73 8.87-.74 10.28v15.45c0 5.43-.5 10.84-.94 15.8-.23 2.58.44 4.6.8 7.2s-.38 5.24.8 7.57c1.45 2.83 4.8 3.1 6.6 5.23-2.18.76-28.57 1.25-29.12 0 2.17.33 6.68-4.3 7.27-6.38a14.3 14.3 0 0 0 0-3.46v-18c0-4.2-1-9.85 0-14 .26-1.06 1.27-.42 1.47-1.28.45-2 0-4.68.1-6.7-.05.75 1-2.24 1.24-1.7-.1-.22-.92-.95-.8-.6.3.9-1.82-1.1-2-1.44-1.73-3.54 0-11.8-.07-15.7 0-4.2.88-9.74-.06-13.85-.03-.2-4-6.4-4.45-5.75q15.42-.34 30.86 0a8.17 8.17 0 0 1-1.02 1.08z"></path></svg>
